<?xml version="1.0" encoding="UTF-8"?>
<svg width="254px" height="122px" viewBox="0 0 254 122" version="1.1" xmlns="http://www.w3.org/2000/svg" xmlns:xlink="http://www.w3.org/1999/xlink">
    <!-- Generator: Sketch 49.3 (51167) - http://www.bohemiancoding.com/sketch -->
    <title>kld</title>
    <desc>Created with Sketch.</desc>
    <defs></defs>
    <g id="Page-2" stroke="none" stroke-width="1" fill="none" fill-rule="evenodd">
        <g id="Artboard-5-Copy" transform="translate(-29.000000, -81.000000)">
            <g id="Group" transform="translate(0.000000, -2.000000)">
                <g id="kld" transform="translate(29.000000, 83.000000)">
                    <g id="Group-3">
                        <ellipse id="Oval-3-Copy-4" fill="#F90D0D" cx="239.145297" cy="107.507322" rx="14.5917258" ry="14.3823215"></ellipse>
                        <g id="kld-copy-2" transform="translate(0.546429, 0.499034)" fill="#3F3D3D">
                            <path d="M176.104304,121.053571 C152.516233,121.053571 133.394323,102.219925 133.394323,78.9874442 C133.394323,55.7549636 152.516233,36.921317 176.104304,36.921317 C199.692376,36.921317 218.814286,55.7549636 218.814286,78.9874442 C218.814286,102.219925 199.692376,121.053571 176.104304,121.053571 Z M176.104304,96.5202067 C186.141598,96.5202067 194.278432,88.6705216 194.278432,78.9874442 C194.278432,69.3043668 186.141598,61.4546817 176.104304,61.4546817 C166.067011,61.4546817 157.930177,69.3043668 157.930177,78.9874442 C157.930177,88.6705216 166.067011,96.5202067 176.104304,96.5202067 Z" id="Combined-Shape-Copy"></path>
                            <polygon id="l-copy-2" points="194.156378 0.00113731399 218.656378 6.64278034 218.656378 75.6960464 194.156378 69.5889035"></polygon>
                            <polygon id="k-copy" points="0 4.60965402 25.5640286 4.60965402 25.5640286 68.4998196 52.8797153 40.0701468 80.7042472 40.0701468 46.1052637 77.2937491 85.1696454 120.965934 55.5158487 120.965934 24.4833356 85.3626774 24.4833356 120.965934 0.0321428571 120.965934"></polygon>
                            <polygon id="l-copy" transform="translate(108.375000, 63.260391) scale(-1, 1) translate(-108.375000, -63.260391) " points="95.9892857 5.09025191 120.760714 13.6191167 120.760714 121.430529 95.9892857 121.430529"></polygon>
                        </g>
                    </g>
                </g>
            </g>
        </g>
    </g>
</svg>