<?xml version="1.0" encoding="UTF-8"?>
<svg width="139px" height="66px" viewBox="0 0 139 66" version="1.1" xmlns="http://www.w3.org/2000/svg" xmlns:xlink="http://www.w3.org/1999/xlink">
    <!-- Generator: Sketch 50.2 (55047) - http://www.bohemiancoding.com/sketch -->
    <title>logo</title>
    <desc>Created with Sketch.</desc>
    <defs></defs>
    <g id="Page-1" stroke="none" stroke-width="1" fill="none" fill-rule="evenodd">
        <g id="Kathy-" transform="translate(-351.000000, -604.000000)">
            <g id="Front" transform="translate(318.000000, 157.000000)">
                <g id="logo" transform="translate(33.000000, 447.000000)">
                    <path d="M107.545867,21.2494224 L107.460874,0 L119.982613,3.18754192 L119.982613,41.2410221 C119.99417,41.544949 120,41.8503321 120,42.1570681 C120,42.463804 119.99417,42.7691871 119.982613,43.073114 L119.982613,43.4805242 L119.963652,43.4805242 C119.272386,56.0330306 108.807816,66 96,66 C82.745166,66 72,55.3251558 72,42.1570681 C72,28.9889804 82.745166,18.3141361 96,18.3141361 C100.185258,18.3141361 104.120301,19.3784198 107.545872,21.249425 Z M96.0510498,52.7015181 C102.034314,52.7015181 106.884708,47.9817673 106.884708,42.1596596 C106.884708,36.3375519 102.034314,31.617801 96.0510498,31.617801 C90.0677854,31.617801 85.2173913,36.3375519 85.2173913,42.1596596 C85.2173913,47.9817673 90.0677854,52.7015181 96.0510498,52.7015181 Z" id="Combined-Shape" fill="#3F3D3D"></path>
                    <polygon id="l" fill="#3F3D3D" transform="translate(60.500000, 33.000000) scale(-1, 1) translate(-60.500000, -33.000000) " points="54 0 67 4.83843676 67 66 54 66"></polygon>
                    <polygon id="k" fill="#3F3D3D" points="0 0 12.9530119 0 12.9530119 38.0331565 30.542137 18.3819629 45.5060196 18.3819629 25.0291277 41.2281167 48 66 33.1673796 66 12.9530119 44.0729443 12.9530119 66 0 66"></polygon>
                    <circle id="Oval-3-Copy" fill="#F90D0D" cx="130.5" cy="57.5" r="8.5"></circle>
                </g>
            </g>
        </g>
    </g>
</svg>