<svg height="122" viewBox="0 0 254 122" width="254" xmlns="http://www.w3.org/2000/svg"><g fill="none" fill-rule="evenodd"><ellipse cx="239.145297" cy="107.507322" fill="#f90d0d" rx="14.591726" ry="14.382322"/><g fill="#3f3d3d" transform="translate(.546429 .499034)"><path d="m176.104304 121.053571c-23.588071 0-42.709981-18.833646-42.709981-42.0661268 0-23.2324806 19.12191-42.0661272 42.709981-42.0661272 23.588072 0 42.709982 18.8336466 42.709982 42.0661272 0 23.2324808-19.12191 42.0661268-42.709982 42.0661268zm0-24.5333643c10.037294 0 18.174128-7.8496851 18.174128-17.5327625s-8.136834-17.5327625-18.174128-17.5327625c-10.037293 0-18.174127 7.8496851-18.174127 17.5327625s8.136834 17.5327625 18.174127 17.5327625z"/><path d="m194.156378.00113731 24.5 6.64164303v69.05326606l-24.5-6.1071429z"/><path d="m0 4.60965402h25.5640286v63.89016558l27.3156867-28.4296728h27.8245319l-34.5989835 37.2236023 39.0643817 43.6721849h-29.6537967l-31.0325131-35.6032566v35.6032566h-24.45119274z"/><path d="m95.9892857 5.09025191 24.7714283 8.52886479v107.8114123h-24.7714283z" transform="matrix(-1 0 0 1 216.75 0)"/></g></g></svg>